<svg id="visual" viewBox="0 0 900 900" width="900" height="900" xmlns="http://www.w3.org/2000/svg" xmlns:xlink="http://www.w3.org/1999/xlink" version="1.1"><rect x="0" y="0" width="900" height="900" fill="#121212"></rect><path d="M0 595L21.5 606.8C43 618.7 86 642.3 128.8 638.7C171.7 635 214.3 604 257.2 594.8C300 585.7 343 598.3 385.8 605.3C428.7 612.3 471.3 613.7 514.2 616.7C557 619.7 600 624.3 642.8 628C685.7 631.7 728.3 634.3 771.2 625.8C814 617.3 857 597.7 878.5 587.8L900 578L900 901L878.5 901C857 901 814 901 771.2 901C728.3 901 685.7 901 642.8 901C600 901 557 901 514.2 901C471.3 901 428.7 901 385.8 901C343 901 300 901 257.2 901C214.3 901 171.7 901 128.8 901C86 901 43 901 21.5 901L0 901Z" fill="#70a1ff"></path><path d="M0 709L21.5 709.2C43 709.3 86 709.7 128.8 701.7C171.7 693.7 214.3 677.3 257.2 671.2C300 665 343 669 385.8 667.3C428.7 665.7 471.3 658.3 514.2 650.3C557 642.3 600 633.7 642.8 626.3C685.7 619 728.3 613 771.2 622.7C814 632.3 857 657.7 878.5 670.3L900 683L900 901L878.5 901C857 901 814 901 771.2 901C728.3 901 685.7 901 642.8 901C600 901 557 901 514.2 901C471.3 901 428.7 901 385.8 901C343 901 300 901 257.2 901C214.3 901 171.7 901 128.8 901C86 901 43 901 21.5 901L0 901Z" fill="#629cff"></path><path d="M0 748L21.5 751.2C43 754.3 86 760.7 128.8 748.8C171.7 737 214.3 707 257.2 700.3C300 693.7 343 710.3 385.8 722.3C428.7 734.3 471.3 741.7 514.2 738.8C557 736 600 723 642.8 709.5C685.7 696 728.3 682 771.2 682.7C814 683.3 857 698.7 878.5 706.3L900 714L900 901L878.5 901C857 901 814 901 771.2 901C728.3 901 685.7 901 642.8 901C600 901 557 901 514.2 901C471.3 901 428.7 901 385.8 901C343 901 300 901 257.2 901C214.3 901 171.7 901 128.8 901C86 901 43 901 21.5 901L0 901Z" fill="#5298ff"></path><path d="M0 770L21.5 762.7C43 755.3 86 740.7 128.8 743.5C171.7 746.3 214.3 766.7 257.2 769.2C300 771.7 343 756.3 385.8 752.3C428.7 748.3 471.3 755.7 514.2 754.7C557 753.7 600 744.3 642.8 748.7C685.7 753 728.3 771 771.2 782C814 793 857 797 878.5 799L900 801L900 901L878.5 901C857 901 814 901 771.2 901C728.3 901 685.7 901 642.8 901C600 901 557 901 514.2 901C471.3 901 428.7 901 385.8 901C343 901 300 901 257.2 901C214.3 901 171.7 901 128.8 901C86 901 43 901 21.5 901L0 901Z" fill="#3e94ff"></path><path d="M0 811L21.5 810.5C43 810 86 809 128.8 811.5C171.7 814 214.3 820 257.2 817.3C300 814.7 343 803.3 385.8 806.3C428.7 809.3 471.3 826.7 514.2 828.5C557 830.3 600 816.7 642.8 811C685.7 805.3 728.3 807.7 771.2 808C814 808.3 857 806.7 878.5 805.8L900 805L900 901L878.5 901C857 901 814 901 771.2 901C728.3 901 685.7 901 642.8 901C600 901 557 901 514.2 901C471.3 901 428.7 901 385.8 901C343 901 300 901 257.2 901C214.3 901 171.7 901 128.8 901C86 901 43 901 21.5 901L0 901Z" fill="#1e90ff"></path></svg>